# xmcd
#
# Track frame offsets:
#	150
#	15300
#	32400
#	48225
#	67036
#	84436
#	100786
#	114280
#	133105
#	150421
#	165571
#	182671
#	198496
#	217307
#	234707
#	251057
#	264551
#	283376
#
# Disc length: 4009 seconds
#
# Revision: 1
# Processed by: cddbd v1.5.2PL0 Copyright (c) Steve Scherf et al.
# Submitted via: audiograbber 1.83.01
#
DISCID=fa0fa712
DTITLE=Pop Hits Monthly - February 2001 - PHN0102
DYEAR=2001
DGENRE=Country
TTITLE0=Warren Bros. - Move On
TTITLE1=Diamond Rio - One More Day
TTITLE2=She Daisy - Lucky  4 You
TTITLE3=Jamie McNeal - There Is No Arizona
TTITLE4=Tim Rushlow - She Misses Him
TTITLE5=Pam Tillis - Please
TTITLE6=Dwight Yoakam - What Do You Know About Love
TTITLE7=Chalee Tennison - Go Back
TTITLE8=Don Henley - For My Wedding
TTITLE9=Warren Bros. - Move On (vocals)
TTITLE10=Diamond Rio - One More Day (vocals)
TTITLE11=She Daisy - Lucky  4 You (vocals)
TTITLE12=Jamie McNeal - There Is No Arizona (vocals)
TTITLE13=Tim Rushlow - She Misses Him (vocals)
TTITLE14=Pam Tillis - Please (vocals)
TTITLE15=Dwight Yoakam - What Do You Know About Love (vocals)
TTITLE16=Chalee Tennison - Go Back (vocals)
TTITLE17=Don Henley - For My Wedding (vocals)
EXTD=fixed vocal listings
EXTT0=
EXTT1=
EXTT2=
EXTT3=
EXTT4=
EXTT5=
EXTT6=
EXTT7=
EXTT8=
EXTT9=
EXTT10=
EXTT11=
EXTT12=
EXTT13=
EXTT14=
EXTT15=
EXTT16=
EXTT17=
PLAYORDER=
